solid pedro
facet normal -0.9999999989990995 3.552432831880943e-05 -2.719968811781215e-05
  outer loop
    vertex 226.26619113892286 274.94095523947254 60.68207363533083
    vertex 226.2662451307406 270.90394198076257 76.49774425224395
    vertex 226.26625001235013 270.9062272578629 77.01984401969477
  endloop
endfacet
facet normal -0.9999999989990995 3.552432831880943e-05 -2.719968811781215e-05
  outer loop
    vertex 226.2662451307406 270.90394198076257 76.49774425224395
    vertex 226.26619113892286 274.94095523947254 60.68207363533083
    vertex 226.26624042099843 270.7666052093253 75.99402607620058
  endloop
endfacet
facet normal -0.9999999989990995 3.552432831880943e-05 -2.719968811781215e-05
  outer loop
    vertex 226.26624042099843 270.7666052093253 75.99402607620058
    vertex 226.26619113892286 274.94095523947254 60.68207363533083
    vertex 226.26498111765176 263.4032628777789 60.68207062066461
  endloop
endfacet
facet normal -0.9999999989990995 3.552432831880943e-05 -2.719968811781215e-05
  outer loop
    vertex 226.26624042099843 270.7666052093253 75.99402607620058
    vertex 226.26498111765176 263.4032628777789 60.68207062066461
    vertex 226.26623620408466 270.50357621756484 75.54301705282835
  endloop
endfacet
facet normal -0.9999999989990995 3.552432831880943e-05 -2.719968811781215e-05
  outer loop
    vertex 226.26623620408466 270.50357621756484 75.54301705282835
    vertex 226.26498111765176 263.4032628777789 60.68207062066461
    vertex 226.26623276737513 270.13277999659374 75.17545270174246
  endloop
endfacet
facet normal -0.9999999989990995 3.552432831880943e-05 -2.719968811781215e-05
  outer loop
    vertex 226.26623276737513 270.13277999659374 75.17545270174246
    vertex 226.26498111765176 263.4032628777789 60.68207062066461
    vertex 226.26623034507585 269.6794856961015 74.91638192604057
  endloop
endfacet
facet normal -0.9999999989990995 3.552432831880943e-05 -2.719968811781215e-05
  outer loop
    vertex 226.26623034507585 269.6794856961015 74.91638192604057
    vertex 226.26498111765176 263.4032628777789 60.68207062066461
    vertex 226.26622910226254 269.17458457356224 74.78345997095208
  endloop
endfacet
facet normal -0.9999999989990995 3.552432831880943e-05 -2.719968811781215e-05
  outer loop
    vertex 226.26622910226254 269.17458457356224 74.78345997095208
    vertex 226.26498111765176 263.4032628777789 60.68207062066461
    vertex 226.26622912363078 268.6524848060886 74.78574524805235
  endloop
endfacet
facet normal -0.9999999989990995 3.552432831880943e-05 -2.719968811781215e-05
  outer loop
    vertex 226.26622912363078 268.6524848060886 74.78574524805235
    vertex 226.26498111765176 263.4032628777789 60.68207062066461
    vertex 226.2662304077245 268.1487666300232 74.92308201948359
  endloop
endfacet
facet normal -0.9999999989990995 3.552432831880943e-05 -2.719968811781215e-05
  outer loop
    vertex 226.2662304077245 268.1487666300232 74.92308201948359
    vertex 226.26498111765176 263.4032628777789 60.68207062066461
    vertex 226.26623286703474 267.6977576066313 75.18611101123253
  endloop
endfacet
facet normal -0.9999999989990995 3.552432831880943e-05 -2.719968811781215e-05
  outer loop
    vertex 226.26623286703474 267.6977576066313 75.18611101123253
    vertex 226.26498111765176 263.4032628777789 60.68207062066461
    vertex 226.26623633396358 267.3301932555293 75.5569072321874
  endloop
endfacet
facet normal -0.9999999989990995 3.552432831880943e-05 -2.719968811781215e-05
  outer loop
    vertex 226.26623633396358 267.3301932555293 75.5569072321874
    vertex 226.26498111765176 263.4032628777789 60.68207062066461
    vertex 226.26624057224558 267.0711224798161 76.01020153265989
  endloop
endfacet
facet normal -0.9999999989990995 3.552432831880943e-05 -2.719968811781215e-05
  outer loop
    vertex 226.26624057224558 267.0711224798161 76.01020153265989
    vertex 226.26498111765176 263.4032628777789 60.68207062066461
    vertex 226.2662452930488 266.9382005247218 76.51510265517705
  endloop
endfacet
facet normal -0.9999999989990995 3.552432831880943e-05 -2.719968811781215e-05
  outer loop
    vertex 226.2662452930488 266.9382005247218 76.51510265517705
    vertex 226.26498111765176 263.4032628777789 60.68207062066461
    vertex 226.26498111765176 263.4032628777793 92.84907062066397
  endloop
endfacet
facet normal -0.9999999989990995 3.552432831880943e-05 -2.719968811781215e-05
  outer loop
    vertex 226.2649909318808 274.9410768778614 92.84907363533013
    vertex 226.26625473315335 270.7733053027686 77.52474514221191
    vertex 226.26498111765176 263.4032628777793 92.84907062066397
  endloop
endfacet
facet normal -0.9999999989990995 3.552432831880943e-05 -2.719968811781215e-05
  outer loop
    vertex 226.26625473315335 270.7733053027686 77.52474514221191
    vertex 226.2649909318808 274.9410768778614 92.84907363533013
    vertex 226.26625001235013 270.9062272578629 77.01984401969477
  endloop
endfacet
facet normal -0.9999999989990995 3.552432831880943e-05 -2.719968811781215e-05
  outer loop
    vertex 226.26625001235013 270.9062272578629 77.01984401969477
    vertex 226.2649909318808 274.9410768778614 92.84907363533013
    vertex 226.26619113892286 274.94095523947254 60.68207363533083
  endloop
endfacet
facet normal -0.9999999989990995 3.552432831880943e-05 -2.719968811781215e-05
  outer loop
    vertex 226.26498111765176 263.4032628777793 92.84907062066397
    vertex 226.26625473315335 270.7733053027686 77.52474514221191
    vertex 226.26625897143535 270.5142345270554 77.9780394426844
  endloop
endfacet
facet normal -0.9999999989990995 3.552432831880943e-05 -2.719968811781215e-05
  outer loop
    vertex 226.26498111765176 263.4032628777793 92.84907062066397
    vertex 226.26625897143535 270.5142345270554 77.9780394426844
    vertex 226.2662624383642 270.14667017595343 78.34883566363929
  endloop
endfacet
facet normal -0.9999999989990995 3.552432831880943e-05 -2.719968811781215e-05
  outer loop
    vertex 226.26498111765176 263.4032628777793 92.84907062066397
    vertex 226.2662624383642 270.14667017595343 78.34883566363929
    vertex 226.26626489767443 269.6956611525615 78.61186465538822
  endloop
endfacet
facet normal -0.9999999989990995 3.552432831880943e-05 -2.719968811781215e-05
  outer loop
    vertex 226.26498111765176 263.4032628777793 92.84907062066397
    vertex 226.26626489767443 269.6956611525615 78.61186465538822
    vertex 226.26626618176815 269.19194297649614 78.74920142681947
  endloop
endfacet
facet normal -0.9999999989990995 3.552432831880943e-05 -2.719968811781215e-05
  outer loop
    vertex 226.26498111765176 263.4032628777793 92.84907062066397
    vertex 226.26626618176815 269.19194297649614 78.74920142681947
    vertex 226.2662662031364 268.6698432090225 78.75148670391974
  endloop
endfacet
facet normal -0.9999999989990995 3.552432831880943e-05 -2.719968811781215e-05
  outer loop
    vertex 226.26498111765176 263.4032628777793 92.84907062066397
    vertex 226.2662662031364 268.6698432090225 78.75148670391974
    vertex 226.26626496032307 268.1649420864832 78.61856474883125
  endloop
endfacet
facet normal -0.9999999989990995 3.552432831880943e-05 -2.719968811781215e-05
  outer loop
    vertex 226.26498111765176 263.4032628777793 92.84907062066397
    vertex 226.26626496032307 268.1649420864832 78.61856474883125
    vertex 226.2662625380238 267.711647785991 78.35949397312936
  endloop
endfacet
facet normal -0.9999999989990995 3.552432831880943e-05 -2.719968811781215e-05
  outer loop
    vertex 226.26498111765176 263.4032628777793 92.84907062066397
    vertex 226.2662625380238 267.711647785991 78.35949397312936
    vertex 226.26625910131426 267.3408515650199 77.99192962204346
  endloop
endfacet
facet normal -0.9999999989990995 3.552432831880943e-05 -2.719968811781215e-05
  outer loop
    vertex 226.26498111765176 263.4032628777793 92.84907062066397
    vertex 226.26625910131426 267.3408515650199 77.99192962204346
    vertex 226.2662548844005 267.0778225732594 77.54092059867124
  endloop
endfacet
facet normal -0.9999999989990995 3.552432831880943e-05 -2.719968811781215e-05
  outer loop
    vertex 226.26498111765176 263.4032628777793 92.84907062066397
    vertex 226.2662548844005 267.0778225732594 77.54092059867124
    vertex 226.26625017465835 266.94048580182215 77.03720242262786
  endloop
endfacet
facet normal -0.9999999989990995 3.552432831880943e-05 -2.719968811781215e-05
  outer loop
    vertex 226.26498111765176 263.4032628777793 92.84907062066397
    vertex 226.26625017465835 266.94048580182215 77.03720242262786
    vertex 226.2662452930488 266.9382005247218 76.51510265517705
  endloop
endfacet
facet normal -1.3301436138097029e-15 -4.905728754343167e-30 1.0
  outer loop
    vertex 243.22535413765158 271.3777588777793 92.84907062066398
    vertex 226.2649909318808 274.9410768778614 92.84907363533013
    vertex 226.26498111765176 263.4032628777793 92.84907062066397
  endloop
endfacet
facet normal -1.3301436138097029e-15 -4.905728754343167e-30 1.0
  outer loop
    vertex 226.2649909318808 274.9410768778614 92.84907363533013
    vertex 243.22535413765158 271.3777588777793 92.84907062066398
    vertex 243.22536395188067 274.9410768778614 92.84907363533016
  endloop
endfacet
facet normal 4.378907383107353e-16 3.795371574992748e-15 -1.0
  outer loop
    vertex 226.26619113892286 274.94095523947254 60.68207363533083
    vertex 243.22535413765158 271.37775887777894 60.68207062066466
    vertex 226.26498111765176 263.4032628777789 60.68207062066461
  endloop
endfacet
facet normal 4.378907383107353e-16 3.795371574992748e-15 -1.0
  outer loop
    vertex 243.22535413765158 271.37775887777894 60.68207062066466
    vertex 226.26619113892286 274.94095523947254 60.68207363533083
    vertex 243.22536395188067 274.94107687786106 60.68207363533083
  endloop
endfacet
facet normal 0.42551264771286357 -0.9049524775259564 -7.484770553725354e-06
  outer loop
    vertex 226.26498111765176 263.4032628777793 92.84907062066397
    vertex 243.2253541376516 271.37775887777934 87.83454982368704
    vertex 243.22535413765158 271.3777588777793 92.84907062066398
  endloop
endfacet
facet normal 0.42551264771286357 -0.9049524775259564 -7.484770553725354e-06
  outer loop
    vertex 243.2253541376516 271.37775887777934 87.83454982368704
    vertex 226.26498111765176 263.4032628777793 92.84907062066397
    vertex 229.1677908941442 264.7678498662038 87.83454712663602
  endloop
endfacet
facet normal 0.42551264771286357 -0.9049524775259564 -7.484770553725354e-06
  outer loop
    vertex 229.1677908941442 264.7678498662038 87.83454712663602
    vertex 226.26498111765176 263.4032628777793 92.84907062066397
    vertex 226.26498111765176 263.4032628777789 60.68207062066461
  endloop
endfacet
facet normal 0.42551264771286357 -0.9049524775259564 -7.484770553725354e-06
  outer loop
    vertex 229.1677908941442 264.7678498662038 87.83454712663602
    vertex 226.26498111765176 263.4032628777789 60.68207062066461
    vertex 229.1675839366474 264.7682900667184 65.69995122914398
  endloop
endfacet
facet normal 0.42551264771286357 -0.9049524775259564 -7.484770553725354e-06
  outer loop
    vertex 229.1675839366474 264.7682900667184 65.69995122914398
    vertex 226.26498111765176 263.4032628777789 60.68207062066461
    vertex 243.22535413765158 271.37775887777894 60.68207062066466
  endloop
endfacet
facet normal 0.42551264771286357 -0.9049524775259564 -7.484770553725354e-06
  outer loop
    vertex 243.22535413765158 271.37775887777894 60.68207062066466
    vertex 243.2253519385507 271.37774512929855 65.70014124418245
    vertex 229.1675839366474 264.7682900667184 65.69995122914398
  endloop
endfacet
facet normal -1.2168180723700298e-05 -3.797240124735141e-06 0.9999999999187583
  outer loop
    vertex 243.2253519385507 271.37774512929855 65.70014124418245
    vertex 229.1675839366474 271.37775200353764 65.69995122914398
    vertex 229.1675839366474 264.7682900667184 65.69995122914398
  endloop
endfacet
facet normal -1.905961571867974e-08 5.710475248666348e-07 -0.9999999999998368
  outer loop
    vertex 243.2253541376516 271.37775887777934 87.83454982368704
    vertex 229.1677908941442 264.7678498662038 87.83454712663602
    vertex 229.16779089414317 271.37775887777934 87.83454982906648
  endloop
endfacet
facet normal 0.99999999999577 -2.908529433931578e-06 -1.90168390203476e-08
  outer loop
    vertex 243.22535413765158 271.3777588777793 92.84907062066398
    vertex 243.22536395188067 274.94107687786106 60.68207363533083
    vertex 243.22536395188067 274.9410768778614 92.84907363533016
  endloop
endfacet
facet normal 0.99999999999577 -2.908529433931578e-06 -1.90168390203476e-08
  outer loop
    vertex 243.22536395188067 274.94107687786106 60.68207363533083
    vertex 243.22535413765158 271.3777588777793 92.84907062066398
    vertex 243.2253541376516 271.37775887777934 87.83454982368704
  endloop
endfacet
facet normal 0.99999999999577 -2.908529433931578e-06 -1.90168390203476e-08
  outer loop
    vertex 243.2253541376516 271.37775887777934 87.83454982368704
    vertex 243.22535413765158 271.37775887777894 60.68207062066466
    vertex 243.22536395188067 274.94107687786106 60.68207363533083
  endloop
endfacet
facet normal 0.99999999999577 -2.908529433931578e-06 -1.90168390203476e-08
  outer loop
    vertex 243.22535413765158 271.37775887777894 60.68207062066466
    vertex 243.2253541376516 271.37775887777934 87.83454982368704
    vertex 243.2253519385507 271.37774512929855 65.70014124418245
  endloop
endfacet
facet normal -2.614957426948823e-07 -0.9999999999998801 4.140893576400368e-07
  outer loop
    vertex 229.1675839366474 271.37775200353764 65.69995122914398
    vertex 243.2253541376516 271.37775887777934 87.83454982368704
    vertex 229.16779089414317 271.37775887777934 87.83454982906648
  endloop
endfacet
facet normal -2.614957426948823e-07 -0.9999999999998801 4.140893576400368e-07
  outer loop
    vertex 243.2253541376516 271.37775887777934 87.83454982368704
    vertex 229.1675839366474 271.37775200353764 65.69995122914398
    vertex 243.2253519385507 271.37774512929855 65.70014124418245
  endloop
endfacet
facet normal 0.9999999999562892 1.9899767955129593e-12 -9.349955364229777e-06
  outer loop
    vertex 229.16779089414317 271.37775887777934 87.83454982906648
    vertex 229.1676897768804 270.9062272578687 77.01981689136244
    vertex 229.1675839366474 271.37775200353764 65.69995122914398
  endloop
endfacet
facet normal 0.9999999999562892 1.9899767955129593e-12 -9.349955364229777e-06
  outer loop
    vertex 229.1676897768804 270.9062272578687 77.01981689136244
    vertex 229.16779089414317 271.37775887777934 87.83454982906648
    vertex 229.16769449768358 270.7733053027744 77.52471801387958
  endloop
endfacet
facet normal 0.9999999999562892 1.9899767955129593e-12 -9.349955364229777e-06
  outer loop
    vertex 229.16769449768358 270.7733053027744 77.52471801387958
    vertex 229.16779089414317 271.37775887777934 87.83454982906648
    vertex 229.16769873596562 270.5142345270612 77.97801231435209
  endloop
endfacet
facet normal 0.9999999999562892 1.9899767955129593e-12 -9.349955364229777e-06
  outer loop
    vertex 229.16769873596562 270.5142345270612 77.97801231435209
    vertex 229.16779089414317 271.37775887777934 87.83454982906648
    vertex 229.1677908941442 264.7678498662038 87.83454712663602
  endloop
endfacet
facet normal 0.9999999999562892 1.9899767955129593e-12 -9.349955364229777e-06
  outer loop
    vertex 229.16769873596562 270.5142345270612 77.97801231435209
    vertex 229.1677908941442 264.7678498662038 87.83454712663602
    vertex 229.16770220289445 270.14667017595923 78.34880853530696
  endloop
endfacet
facet normal 0.9999999999562892 1.9899767955129593e-12 -9.349955364229777e-06
  outer loop
    vertex 229.16770220289445 270.14667017595923 78.34880853530696
    vertex 229.1677908941442 264.7678498662038 87.83454712663602
    vertex 229.16770466220467 269.69566115256725 78.6118375270559
  endloop
endfacet
facet normal 0.9999999999562892 1.9899767955129593e-12 -9.349955364229777e-06
  outer loop
    vertex 229.16770466220467 269.69566115256725 78.6118375270559
    vertex 229.1677908941442 264.7678498662038 87.83454712663602
    vertex 229.16770594629838 269.1919429765019 78.74917429848713
  endloop
endfacet
facet normal 0.9999999999562892 1.9899767955129593e-12 -9.349955364229777e-06
  outer loop
    vertex 229.16770594629838 269.1919429765019 78.74917429848713
    vertex 229.1677908941442 264.7678498662038 87.83454712663602
    vertex 229.16770596766665 268.6698432090283 78.75145957558742
  endloop
endfacet
facet normal 0.9999999999562892 1.9899767955129593e-12 -9.349955364229777e-06
  outer loop
    vertex 229.16770596766665 268.6698432090283 78.75145957558742
    vertex 229.1677908941442 264.7678498662038 87.83454712663602
    vertex 229.1677047248533 268.164942086489 78.61853762049891
  endloop
endfacet
facet normal 0.9999999999562892 1.9899767955129593e-12 -9.349955364229777e-06
  outer loop
    vertex 229.1677047248533 268.164942086489 78.61853762049891
    vertex 229.1677908941442 264.7678498662038 87.83454712663602
    vertex 229.16770230255403 267.7116477859967 78.35946684479703
  endloop
endfacet
facet normal 0.9999999999562892 1.9899767955129593e-12 -9.349955364229777e-06
  outer loop
    vertex 229.16770230255403 267.7116477859967 78.35946684479703
    vertex 229.1677908941442 264.7678498662038 87.83454712663602
    vertex 229.16769886584453 267.3408515650256 77.99190249371114
  endloop
endfacet
facet normal 0.9999999999562892 1.9899767955129593e-12 -9.349955364229777e-06
  outer loop
    vertex 229.16769886584453 267.3408515650256 77.99190249371114
    vertex 229.1677908941442 264.7678498662038 87.83454712663602
    vertex 229.16769464893076 267.07782257326517 77.5408934703389
  endloop
endfacet
facet normal 0.9999999999562892 1.9899767955129593e-12 -9.349955364229777e-06
  outer loop
    vertex 229.16769464893076 267.07782257326517 77.5408934703389
    vertex 229.1677908941442 264.7678498662038 87.83454712663602
    vertex 229.1676899391886 266.94048580182795 77.03717529429554
  endloop
endfacet
facet normal 0.9999999999562892 1.9899767955129593e-12 -9.349955364229777e-06
  outer loop
    vertex 229.1676899391886 266.94048580182795 77.03717529429554
    vertex 229.1677908941442 264.7678498662038 87.83454712663602
    vertex 229.16768505757904 266.9382005247276 76.51507552684471
  endloop
endfacet
facet normal 0.9999999999562892 1.9899767955129593e-12 -9.349955364229777e-06
  outer loop
    vertex 229.16768505757904 266.9382005247276 76.51507552684471
    vertex 229.1677908941442 264.7678498662038 87.83454712663602
    vertex 229.1675839366474 264.7682900667184 65.69995122914398
  endloop
endfacet
facet normal 0.9999999999562892 1.9899767955129593e-12 -9.349955364229777e-06
  outer loop
    vertex 229.1675839366474 271.37775200353764 65.69995122914398
    vertex 229.16768018552867 270.7666052093311 75.99399894786825
    vertex 229.1675839366474 264.7682900667184 65.69995122914398
  endloop
endfacet
facet normal 0.9999999999562892 1.9899767955129593e-12 -9.349955364229777e-06
  outer loop
    vertex 229.16768018552867 270.7666052093311 75.99399894786825
    vertex 229.1675839366474 271.37775200353764 65.69995122914398
    vertex 229.16768489527084 270.9039419807683 76.49771712391163
  endloop
endfacet
facet normal 0.9999999999562892 1.9899767955129593e-12 -9.349955364229777e-06
  outer loop
    vertex 229.16768489527084 270.9039419807683 76.49771712391163
    vertex 229.1675839366474 271.37775200353764 65.69995122914398
    vertex 229.1676897768804 270.9062272578687 77.01981689136244
  endloop
endfacet
facet normal 0.9999999999562892 1.9899767955129593e-12 -9.349955364229777e-06
  outer loop
    vertex 229.1675839366474 264.7682900667184 65.69995122914398
    vertex 229.16768018552867 270.7666052093311 75.99399894786825
    vertex 229.1676759686149 270.50357621757064 75.54298992449603
  endloop
endfacet
facet normal 0.9999999999562892 1.9899767955129593e-12 -9.349955364229777e-06
  outer loop
    vertex 229.1675839366474 264.7682900667184 65.69995122914398
    vertex 229.1676759686149 270.50357621757064 75.54298992449603
    vertex 229.1676725319054 270.13277999659954 75.17542557341012
  endloop
endfacet
facet normal 0.9999999999562892 1.9899767955129593e-12 -9.349955364229777e-06
  outer loop
    vertex 229.1675839366474 264.7682900667184 65.69995122914398
    vertex 229.1676725319054 270.13277999659954 75.17542557341012
    vertex 229.16767010960612 269.67948569610724 74.91635479770824
  endloop
endfacet
facet normal 0.9999999999562892 1.9899767955129593e-12 -9.349955364229777e-06
  outer loop
    vertex 229.1675839366474 264.7682900667184 65.69995122914398
    vertex 229.16767010960612 269.67948569610724 74.91635479770824
    vertex 229.16766886679278 269.17458457356804 74.78343284261976
  endloop
endfacet
facet normal 0.9999999999562892 1.9899767955129593e-12 -9.349955364229777e-06
  outer loop
    vertex 229.1675839366474 264.7682900667184 65.69995122914398
    vertex 229.16766886679278 269.17458457356804 74.78343284261976
    vertex 229.16766888816105 268.6524848060944 74.78571811972002
  endloop
endfacet
facet normal 0.9999999999562892 1.9899767955129593e-12 -9.349955364229777e-06
  outer loop
    vertex 229.1675839366474 264.7682900667184 65.69995122914398
    vertex 229.16766888816105 268.6524848060944 74.78571811972002
    vertex 229.16767017225476 268.148766630029 74.92305489115127
  endloop
endfacet
facet normal 0.9999999999562892 1.9899767955129593e-12 -9.349955364229777e-06
  outer loop
    vertex 229.1675839366474 264.7682900667184 65.69995122914398
    vertex 229.16767017225476 268.148766630029 74.92305489115127
    vertex 229.16767263156498 267.697757606637 75.18608388290019
  endloop
endfacet
facet normal 0.9999999999562892 1.9899767955129593e-12 -9.349955364229777e-06
  outer loop
    vertex 229.1675839366474 264.7682900667184 65.69995122914398
    vertex 229.16767263156498 267.697757606637 75.18608388290019
    vertex 229.1676760984938 267.33019325553505 75.55688010385506
  endloop
endfacet
facet normal 0.9999999999562892 1.9899767955129593e-12 -9.349955364229777e-06
  outer loop
    vertex 229.1675839366474 264.7682900667184 65.69995122914398
    vertex 229.1676760984938 267.33019325553505 75.55688010385506
    vertex 229.16768033677585 267.0711224798219 76.01017440432756
  endloop
endfacet
facet normal 0.9999999999562892 1.9899767955129593e-12 -9.349955364229777e-06
  outer loop
    vertex 229.1675839366474 264.7682900667184 65.69995122914398
    vertex 229.16768033677585 267.0711224798219 76.01017440432756
    vertex 229.16768505757904 266.9382005247276 76.51507552684471
  endloop
endfacet
facet normal -2.7075753455645512e-06 0.99999999998281 -5.200899972269843e-06
  outer loop
    vertex 243.22536395188067 274.94107687786106 60.68207363533083
    vertex 226.2649909318808 274.9410768778614 92.84907363533013
    vertex 243.22536395188067 274.9410768778614 92.84907363533016
  endloop
endfacet
facet normal -2.7075753455645512e-06 0.99999999998281 -5.200899972269843e-06
  outer loop
    vertex 226.2649909318808 274.9410768778614 92.84907363533013
    vertex 243.22536395188067 274.94107687786106 60.68207363533083
    vertex 226.26619113892286 274.94095523947254 60.68207363533083
  endloop
endfacet
facet normal 8.076757709524712e-06 0.5037858442177356 0.8638285843271162
  outer loop
    vertex 226.26623286703474 267.6977576066313 75.18611101123253
    vertex 229.16767017225476 268.148766630029 74.92305489115127
    vertex 226.2662304077245 268.1487666300232 74.92308201948359
  endloop
endfacet
facet normal 8.076757709524712e-06 0.5037858442177356 0.8638285843271162
  outer loop
    vertex 229.16767017225476 268.148766630029 74.92305489115127
    vertex 226.26623286703474 267.6977576066313 75.18611101123253
    vertex 229.16767263156498 267.697757606637 75.18608388290019
  endloop
endfacet
facet normal 9.020684112345345e-06 0.26304446851118946 0.9647837102191834
  outer loop
    vertex 226.2662304077245 268.1487666300232 74.92308201948359
    vertex 229.16766888816105 268.6524848060944 74.78571811972002
    vertex 226.26622912363078 268.6524848060886 74.78574524805235
  endloop
endfacet
facet normal 9.020684112345345e-06 0.26304446851118946 0.9647837102191834
  outer loop
    vertex 229.16766888816105 268.6524848060944 74.78571811972002
    vertex 226.2662304077245 268.1487666300232 74.92308201948359
    vertex 229.16767017225476 268.148766630029 74.92305489115127
  endloop
endfacet
facet normal 9.349865800295064e-06 0.004377046977115659 0.9999904206402881
  outer loop
    vertex 226.26622912363078 268.6524848060886 74.78574524805235
    vertex 229.16766886679278 269.17458457356804 74.78343284261976
    vertex 226.26622910226254 269.17458457356224 74.78345997095208
  endloop
endfacet
facet normal 9.349865800295064e-06 0.004377046977115659 0.9999904206402881
  outer loop
    vertex 229.16766886679278 269.17458457356804 74.78343284261976
    vertex 226.26622912363078 268.6524848060886 74.78574524805235
    vertex 229.16766888816105 268.6524848060944 74.78571811972002
  endloop
endfacet
facet normal 9.041869585338509e-06 -0.25458866307499933 0.9670494364570662
  outer loop
    vertex 229.16766886679278 269.17458457356804 74.78343284261976
    vertex 226.26623034507585 269.6794856961015 74.91638192604057
    vertex 226.26622910226254 269.17458457356224 74.78345997095208
  endloop
endfacet
facet normal 9.041869585338509e-06 -0.25458866307499933 0.9670494364570662
  outer loop
    vertex 226.26623034507585 269.6794856961015 74.91638192604057
    vertex 229.16766886679278 269.17458457356804 74.78343284261976
    vertex 229.16767010960612 269.67948569610724 74.91635479770824
  endloop
endfacet
facet normal 8.117684900536967e-06 -0.4962045764662658 0.8682056313040345
  outer loop
    vertex 229.16767010960612 269.67948569610724 74.91635479770824
    vertex 226.26623276737513 270.13277999659374 75.17545270174246
    vertex 226.26623034507585 269.6794856961015 74.91638192604057
  endloop
endfacet
facet normal 8.117684900536967e-06 -0.4962045764662658 0.8682056313040345
  outer loop
    vertex 226.26623276737513 270.13277999659374 75.17545270174246
    vertex 229.16767010960612 269.67948569610724 74.91635479770824
    vertex 229.1676725319054 270.13277999659954 75.17542557341012
  endloop
endfacet
facet normal 6.640293404872807e-06 -0.7040049679881255 0.7101950471553184
  outer loop
    vertex 229.1676725319054 270.13277999659954 75.17542557341012
    vertex 226.26623620408466 270.50357621756484 75.54301705282835
    vertex 226.26623276737513 270.13277999659374 75.17545270174246
  endloop
endfacet
facet normal 6.640293404872807e-06 -0.7040049679881255 0.7101950471553184
  outer loop
    vertex 226.26623620408466 270.50357621756484 75.54301705282835
    vertex 229.1676725319054 270.13277999659954 75.17542557341012
    vertex 229.1676759686149 270.50357621757064 75.54298992449603
  endloop
endfacet
facet normal 4.710376887269922e-06 -0.8638285843648608 0.5037858441957385
  outer loop
    vertex 226.26623620408466 270.50357621756484 75.54301705282835
    vertex 229.16768018552867 270.7666052093311 75.99399894786825
    vertex 226.26624042099843 270.7666052093253 75.99402607620058
  endloop
endfacet
facet normal 4.710376887269922e-06 -0.8638285843648608 0.5037858441957385
  outer loop
    vertex 229.16768018552867 270.7666052093311 75.99399894786825
    vertex 226.26623620408466 270.50357621756484 75.54301705282835
    vertex 229.1676759686149 270.50357621757064 75.54298992449603
  endloop
endfacet
facet normal 2.45945596906556e-06 -0.964783710261352 0.26304446849970237
  outer loop
    vertex 226.26624042099843 270.7666052093253 75.99402607620058
    vertex 229.16768489527084 270.9039419807683 76.49771712391163
    vertex 226.2662451307406 270.90394198076257 76.49774425224395
  endloop
endfacet
facet normal 2.45945596906556e-06 -0.964783710261352 0.26304446849970237
  outer loop
    vertex 229.16768489527084 270.9039419807683 76.49771712391163
    vertex 226.26624042099843 270.7666052093253 75.99402607620058
    vertex 229.16768018552867 270.7666052093311 75.99399894786825
  endloop
endfacet
facet normal 4.09271910117352e-08 -0.9999904206839987 0.004377046976862584
  outer loop
    vertex 226.2662451307406 270.90394198076257 76.49774425224395
    vertex 229.1676897768804 270.9062272578687 77.01981689136244
    vertex 226.26625001235013 270.9062272578629 77.01984401969477
  endloop
endfacet
facet normal 4.09271910117352e-08 -0.9999904206839987 0.004377046976862584
  outer loop
    vertex 229.1676897768804 270.9062272578687 77.01981689136244
    vertex 226.2662451307406 270.90394198076257 76.49774425224395
    vertex 229.16768489527084 270.9039419807683 76.49771712391163
  endloop
endfacet
facet normal -2.3803907074722738e-06 -0.9670494364993457 -0.2545886630638366
  outer loop
    vertex 226.26625001235013 270.9062272578629 77.01984401969477
    vertex 229.16769449768358 270.7733053027744 77.52471801387958
    vertex 226.26625473315335 270.7733053027686 77.52474514221191
  endloop
endfacet
facet normal -2.3803907074722738e-06 -0.9670494364993457 -0.2545886630638366
  outer loop
    vertex 229.16769449768358 270.7733053027744 77.52471801387958
    vertex 226.26625001235013 270.9062272578629 77.01984401969477
    vertex 229.1676897768804 270.9062272578687 77.01981689136244
  endloop
endfacet
facet normal -4.639488913025028e-06 -0.8682056313420069 -0.49620457644453725
  outer loop
    vertex 226.26625473315335 270.7733053027686 77.52474514221191
    vertex 229.16769873596562 270.5142345270612 77.97801231435209
    vertex 226.26625897143535 270.5142345270554 77.9780394426844
  endloop
endfacet
facet normal -4.639488913025028e-06 -0.8682056313420069 -0.49620457644453725
  outer loop
    vertex 229.16769873596562 270.5142345270612 77.97801231435209
    vertex 226.26625473315335 270.7733053027686 77.52474514221191
    vertex 229.16769449768358 270.7733053027744 77.52471801387958
  endloop
endfacet
facet normal -6.582413616273124e-06 -0.710195047186332 -0.7040049679573828
  outer loop
    vertex 226.26625897143535 270.5142345270554 77.9780394426844
    vertex 229.16770220289445 270.14667017595923 78.34880853530696
    vertex 226.2662624383642 270.14667017595343 78.34883566363929
  endloop
endfacet
facet normal -6.582413616273124e-06 -0.710195047186332 -0.7040049679573828
  outer loop
    vertex 229.16770220289445 270.14667017595923 78.34880853530696
    vertex 226.26625897143535 270.5142345270554 77.9780394426844
    vertex 229.16769873596562 270.5142345270612 77.97801231435209
  endloop
endfacet
facet normal -8.076757709524712e-06 -0.5037858442177356 -0.8638285843271162
  outer loop
    vertex 229.16770220289445 270.14667017595923 78.34880853530696
    vertex 226.26626489767443 269.6956611525615 78.61186465538822
    vertex 226.2662624383642 270.14667017595343 78.34883566363929
  endloop
endfacet
facet normal -8.076757709524712e-06 -0.5037858442177356 -0.8638285843271162
  outer loop
    vertex 226.26626489767443 269.6956611525615 78.61186465538822
    vertex 229.16770220289445 270.14667017595923 78.34880853530696
    vertex 229.16770466220467 269.69566115256725 78.6118375270559
  endloop
endfacet
facet normal -9.020684112345345e-06 -0.26304446851118946 -0.9647837102191834
  outer loop
    vertex 229.16770466220467 269.69566115256725 78.6118375270559
    vertex 226.26626618176815 269.19194297649614 78.74920142681947
    vertex 226.26626489767443 269.6956611525615 78.61186465538822
  endloop
endfacet
facet normal -9.020684112345345e-06 -0.26304446851118946 -0.9647837102191834
  outer loop
    vertex 226.26626618176815 269.19194297649614 78.74920142681947
    vertex 229.16770466220467 269.69566115256725 78.6118375270559
    vertex 229.16770594629838 269.1919429765019 78.74917429848713
  endloop
endfacet
facet normal -9.349865800295064e-06 -0.004377046977137263 -0.999990420640288
  outer loop
    vertex 229.16770594629838 269.1919429765019 78.74917429848713
    vertex 226.2662662031364 268.6698432090225 78.75148670391974
    vertex 226.26626618176815 269.19194297649614 78.74920142681947
  endloop
endfacet
facet normal -9.349865800295064e-06 -0.004377046977137263 -0.999990420640288
  outer loop
    vertex 226.2662662031364 268.6698432090225 78.75148670391974
    vertex 229.16770594629838 269.1919429765019 78.74917429848713
    vertex 229.16770596766665 268.6698432090283 78.75145957558742
  endloop
endfacet
facet normal -9.04186958533846e-06 0.25458866307501954 -0.9670494364570609
  outer loop
    vertex 226.2662662031364 268.6698432090225 78.75148670391974
    vertex 229.1677047248533 268.164942086489 78.61853762049891
    vertex 226.26626496032307 268.1649420864832 78.61856474883125
  endloop
endfacet
facet normal -9.04186958533846e-06 0.25458866307501954 -0.9670494364570609
  outer loop
    vertex 229.1677047248533 268.164942086489 78.61853762049891
    vertex 226.2662662031364 268.6698432090225 78.75148670391974
    vertex 229.16770596766665 268.6698432090283 78.75145957558742
  endloop
endfacet
facet normal -8.117684900536967e-06 0.4962045764662658 -0.8682056313040345
  outer loop
    vertex 226.26626496032307 268.1649420864832 78.61856474883125
    vertex 229.16770230255403 267.7116477859967 78.35946684479703
    vertex 226.2662625380238 267.711647785991 78.35949397312936
  endloop
endfacet
facet normal -8.117684900536967e-06 0.4962045764662658 -0.8682056313040345
  outer loop
    vertex 229.16770230255403 267.7116477859967 78.35946684479703
    vertex 226.26626496032307 268.1649420864832 78.61856474883125
    vertex 229.1677047248533 268.164942086489 78.61853762049891
  endloop
endfacet
facet normal -6.640293404872807e-06 0.7040049679881255 -0.7101950471553184
  outer loop
    vertex 226.2662625380238 267.711647785991 78.35949397312936
    vertex 229.16769886584453 267.3408515650256 77.99190249371114
    vertex 226.26625910131426 267.3408515650199 77.99192962204346
  endloop
endfacet
facet normal -6.640293404872807e-06 0.7040049679881255 -0.7101950471553184
  outer loop
    vertex 229.16769886584453 267.3408515650256 77.99190249371114
    vertex 226.2662625380238 267.711647785991 78.35949397312936
    vertex 229.16770230255403 267.7116477859967 78.35946684479703
  endloop
endfacet
facet normal -4.710376887269922e-06 0.8638285843648608 -0.5037858441957385
  outer loop
    vertex 229.16769886584453 267.3408515650256 77.99190249371114
    vertex 226.2662548844005 267.0778225732594 77.54092059867124
    vertex 226.26625910131426 267.3408515650199 77.99192962204346
  endloop
endfacet
facet normal -4.710376887269922e-06 0.8638285843648608 -0.5037858441957385
  outer loop
    vertex 226.2662548844005 267.0778225732594 77.54092059867124
    vertex 229.16769886584453 267.3408515650256 77.99190249371114
    vertex 229.16769464893076 267.07782257326517 77.5408934703389
  endloop
endfacet
facet normal -2.45945596906556e-06 0.964783710261352 -0.26304446849970237
  outer loop
    vertex 229.16769464893076 267.07782257326517 77.5408934703389
    vertex 226.26625017465835 266.94048580182215 77.03720242262786
    vertex 226.2662548844005 267.0778225732594 77.54092059867124
  endloop
endfacet
facet normal -2.45945596906556e-06 0.964783710261352 -0.26304446849970237
  outer loop
    vertex 226.26625017465835 266.94048580182215 77.03720242262786
    vertex 229.16769464893076 267.07782257326517 77.5408934703389
    vertex 229.1676899391886 266.94048580182795 77.03717529429554
  endloop
endfacet
facet normal -4.09271910117352e-08 0.9999904206839987 -0.004377046976862584
  outer loop
    vertex 229.1676899391886 266.94048580182795 77.03717529429554
    vertex 226.2662452930488 266.9382005247218 76.51510265517705
    vertex 226.26625017465835 266.94048580182215 77.03720242262786
  endloop
endfacet
facet normal -4.09271910117352e-08 0.9999904206839987 -0.004377046976862584
  outer loop
    vertex 226.2662452930488 266.9382005247218 76.51510265517705
    vertex 229.1676899391886 266.94048580182795 77.03717529429554
    vertex 229.16768505757904 266.9382005247276 76.51507552684471
  endloop
endfacet
facet normal 2.380390707472224e-06 0.9670494364993472 0.25458866306383127
  outer loop
    vertex 229.16768505757904 266.9382005247276 76.51507552684471
    vertex 226.26624057224558 267.0711224798161 76.01020153265989
    vertex 226.2662452930488 266.9382005247218 76.51510265517705
  endloop
endfacet
facet normal 2.380390707472224e-06 0.9670494364993472 0.25458866306383127
  outer loop
    vertex 226.26624057224558 267.0711224798161 76.01020153265989
    vertex 229.16768505757904 266.9382005247276 76.51507552684471
    vertex 229.16768033677585 267.0711224798219 76.01017440432756
  endloop
endfacet
facet normal 4.6394889130251155e-06 0.8682056313420015 0.4962045764445466
  outer loop
    vertex 229.16768033677585 267.0711224798219 76.01017440432756
    vertex 226.26623633396358 267.3301932555293 75.5569072321874
    vertex 226.26624057224558 267.0711224798161 76.01020153265989
  endloop
endfacet
facet normal 4.6394889130251155e-06 0.8682056313420015 0.4962045764445466
  outer loop
    vertex 226.26623633396358 267.3301932555293 75.5569072321874
    vertex 229.16768033677585 267.0711224798219 76.01017440432756
    vertex 229.1676760984938 267.33019325553505 75.55688010385506
  endloop
endfacet
facet normal 6.582413616273124e-06 0.710195047186332 0.7040049679573828
  outer loop
    vertex 229.1676760984938 267.33019325553505 75.55688010385506
    vertex 226.26623286703474 267.6977576066313 75.18611101123253
    vertex 226.26623633396358 267.3301932555293 75.5569072321874
  endloop
endfacet
facet normal 6.582413616273124e-06 0.710195047186332 0.7040049679573828
  outer loop
    vertex 226.26623286703474 267.6977576066313 75.18611101123253
    vertex 229.1676760984938 267.33019325553505 75.55688010385506
    vertex 229.16767263156498 267.697757606637 75.18608388290019
  endloop
endfacet
facet normal -7.553354456588597e-15 -1.2219005185739755e-15 1.0
  outer loop
    vertex 218.26371591414724 263.40340278409997 65.70196636663195
    vertex 216.47769869119583 274.9412026866338 65.70197470809156
    vertex 216.47768722395884 263.40340278409997 65.70196636663195
  endloop
endfacet
facet normal -7.553354456588597e-15 -1.2219005185739755e-15 1.0
  outer loop
    vertex 216.47769869119583 274.9412026866338 65.70197470809156
    vertex 218.26371591414724 263.40340278409997 65.70196636663195
    vertex 218.26372738138426 274.9412026866338 65.70197470809156
  endloop
endfacet
facet normal -1.0 1.3483227901513544e-94 4.4971008843918656e-64
  outer loop
    vertex 216.47768722395884 263.40340278409997 65.70196636663195
    vertex 216.47769869119574 274.9412026866334 60.68238670809148
    vertex 216.47768722395875 263.40340278409957 60.68237836663183
  endloop
endfacet
facet normal -1.0 1.3483227901513544e-94 4.4971008843918656e-64
  outer loop
    vertex 216.47769869119574 274.9412026866334 60.68238670809148
    vertex 216.47768722395884 263.40340278409997 65.70196636663195
    vertex 216.47769869119583 274.9412026866338 65.70197470809156
  endloop
endfacet
facet normal 2.293512066684502e-05 0.9999999995978225 1.6683389553473385e-05
  outer loop
    vertex 216.47769869119583 274.9412026866338 65.70197470809156
    vertex 218.26372738138426 274.9412026866338 63.69540770809146
    vertex 216.47769869119574 274.9412026866334 60.68238670809148
  endloop
endfacet
facet normal 2.293512066684502e-05 0.9999999995978225 1.6683389553473385e-05
  outer loop
    vertex 218.26372738138426 274.9412026866338 63.69540770809146
    vertex 216.47769869119583 274.9412026866338 65.70197470809156
    vertex 218.26372738138426 274.9412026866338 65.70197470809156
  endloop
endfacet
facet normal 2.293512066684502e-05 0.9999999995978225 1.6683389553473385e-05
  outer loop
    vertex 216.47769869119574 274.9412026866334 60.68238670809148
    vertex 226.2661927919308 274.94081950353575 65.70013162379297
    vertex 226.2661927919308 274.94094114192427 60.68207896212426
  endloop
endfacet
facet normal 2.293512066684502e-05 0.9999999995978225 1.6683389553473385e-05
  outer loop
    vertex 226.2661927919308 274.94081950353575 65.70013162379297
    vertex 216.47769869119574 274.9412026866334 60.68238670809148
    vertex 219.97809996248677 274.94141116501754 63.697317788686775
  endloop
endfacet
facet normal 2.293512066684502e-05 0.9999999995978225 1.6683389553473385e-05
  outer loop
    vertex 219.97809996248677 274.94141116501754 63.697317788686775
    vertex 216.47769869119574 274.9412026866334 60.68238670809148
    vertex 218.26372738138426 274.9412026866338 63.69540770809146
  endloop
endfacet
facet normal 2.293512066684502e-05 0.9999999995978225 1.6683389553473385e-05
  outer loop
    vertex 226.2661927919308 274.94081950353575 65.70013162379297
    vertex 219.97809996248677 274.94141116501754 63.697317788686775
    vertex 219.9793001695291 274.94116788824016 65.70234945035556
  endloop
endfacet
facet normal 0.9999999913710703 -5.4367967780827925e-05 -0.00011959090030395004
  outer loop
    vertex 226.26498111765176 263.4032628777789 60.68207062066461
    vertex 226.2661927919308 274.94081950353575 65.70013162379297
    vertex 226.26618132469363 263.4030196010019 65.70012328233338
  endloop
endfacet
facet normal 0.9999999913710703 -5.4367967780827925e-05 -0.00011959090030395004
  outer loop
    vertex 226.2661927919308 274.94081950353575 65.70013162379297
    vertex 226.26498111765176 263.4032628777789 60.68207062066461
    vertex 226.2661927919308 274.94094114192427 60.68207896212426
  endloop
endfacet
facet normal 0.0002578908385602818 -8.090717752117512e-05 0.9999999634731714
  outer loop
    vertex 219.98108826232004 263.4034599441219 65.69966152652609
    vertex 226.2661927919308 274.94081950353575 65.70013162379297
    vertex 219.9793001695291 274.94116788824016 65.70234945035556
  endloop
endfacet
facet normal 0.0002578908385602818 -8.090717752117512e-05 0.9999999634731714
  outer loop
    vertex 226.2661927919308 274.94081950353575 65.70013162379297
    vertex 219.98108826232004 263.4034599441219 65.69966152652609
    vertex 226.26618132469363 263.4030196010019 65.70012328233338
  endloop
endfacet
facet normal -0.9999998075381161 -0.00016318254917053988 0.0005985776362813802
  outer loop
    vertex 219.9793001695291 274.94116788824016 65.70234945035556
    vertex 219.97988805527783 263.4037032208993 63.694629864857355
    vertex 219.98108826232004 263.4034599441219 65.69966152652609
  endloop
endfacet
facet normal -0.9999998075381161 -0.00016318254917053988 0.0005985776362813802
  outer loop
    vertex 219.97988805527783 263.4037032208993 63.694629864857355
    vertex 219.9793001695291 274.94116788824016 65.70234945035556
    vertex 219.97809996248677 274.94141116501754 63.697317788686775
  endloop
endfacet
facet normal 1.0 -1.3483227901513544e-94 -4.4971008843918656e-64
  outer loop
    vertex 218.26372738138426 274.9412026866338 63.69540770809146
    vertex 218.26371591414724 263.40340278409997 65.70196636663195
    vertex 218.26371591414724 263.40340278409997 63.695399366631854
  endloop
endfacet
facet normal 1.0 -1.3483227901513544e-94 -4.4971008843918656e-64
  outer loop
    vertex 218.26371591414724 263.40340278409997 65.70196636663195
    vertex 218.26372738138426 274.9412026866338 63.69540770809146
    vertex 218.26372738138426 274.9412026866338 65.70197470809156
  endloop
endfacet
facet normal -0.00024908392081406306 -9.902180072930851e-05 0.9999999640759412
  outer loop
    vertex 219.97988805527783 263.4037032208993 63.694629864857355
    vertex 218.26372738138426 274.9412026866338 63.69540770809146
    vertex 218.26371591414724 263.40340278409997 63.695399366631854
  endloop
endfacet
facet normal -0.00024908392081406306 -9.902180072930851e-05 0.9999999640759412
  outer loop
    vertex 218.26372738138426 274.9412026866338 63.69540770809146
    vertex 219.97988805527783 263.4037032208993 63.694629864857355
    vertex 219.97809996248677 274.94141116501754 63.697317788686775
  endloop
endfacet
facet normal -2.536706453692914e-05 -0.9999999996400837 -8.737564225950229e-06
  outer loop
    vertex 226.26618132469363 263.4030196010019 65.70012328233338
    vertex 216.47768722395875 263.40340278409957 60.68237836663183
    vertex 226.26498111765176 263.4032628777789 60.68207062066461
  endloop
endfacet
facet normal -2.536706453692914e-05 -0.9999999996400837 -8.737564225950229e-06
  outer loop
    vertex 216.47768722395875 263.40340278409957 60.68237836663183
    vertex 226.26618132469363 263.4030196010019 65.70012328233338
    vertex 219.97988805527783 263.4037032208993 63.694629864857355
  endloop
endfacet
facet normal -2.536706453692914e-05 -0.9999999996400837 -8.737564225950229e-06
  outer loop
    vertex 219.97988805527783 263.4037032208993 63.694629864857355
    vertex 226.26618132469363 263.4030196010019 65.70012328233338
    vertex 219.98108826232004 263.4034599441219 65.69966152652609
  endloop
endfacet
facet normal -2.536706453692914e-05 -0.9999999996400837 -8.737564225950229e-06
  outer loop
    vertex 216.47768722395875 263.40340278409957 60.68237836663183
    vertex 218.26371591414724 263.40340278409997 63.695399366631854
    vertex 216.47768722395884 263.40340278409997 65.70196636663195
  endloop
endfacet
facet normal -2.536706453692914e-05 -0.9999999996400837 -8.737564225950229e-06
  outer loop
    vertex 218.26371591414724 263.40340278409997 63.695399366631854
    vertex 216.47768722395875 263.40340278409957 60.68237836663183
    vertex 219.97988805527783 263.4037032208993 63.694629864857355
  endloop
endfacet
facet normal -2.536706453692914e-05 -0.9999999996400837 -8.737564225950229e-06
  outer loop
    vertex 216.47768722395884 263.40340278409997 65.70196636663195
    vertex 218.26371591414724 263.40340278409997 63.695399366631854
    vertex 218.26371591414724 263.40340278409997 65.70196636663195
  endloop
endfacet
facet normal -3.0449920403793263e-05 3.5668351806884667e-06 -0.9999999995300402
  outer loop
    vertex 216.47769869119574 274.9412026866334 60.68238670809148
    vertex 226.26498111765176 263.4032628777789 60.68207062066461
    vertex 216.47768722395875 263.40340278409957 60.68237836663183
  endloop
endfacet
facet normal -3.0449920403793263e-05 3.5668351806884667e-06 -0.9999999995300402
  outer loop
    vertex 226.26498111765176 263.4032628777789 60.68207062066461
    vertex 216.47769869119574 274.9412026866334 60.68238670809148
    vertex 226.2661927919308 274.94094114192427 60.68207896212426
  endloop
endfacet
facet normal -1.0 1.4777052033217574e-29 -7.380492215148201e-15
  outer loop
    vertex 216.47769644447408 274.94103546905416 92.84938860267474
    vertex 216.47770253554714 263.40340278409997 87.82837836663114
    vertex 216.47770253554714 263.40340278409997 92.84937836663119
  endloop
endfacet
facet normal -1.0 1.4777052033217574e-29 -7.380492215148201e-15
  outer loop
    vertex 216.47770253554714 263.40340278409997 87.82837836663114
    vertex 216.47769644447408 274.94103546905416 92.84938860267474
    vertex 216.47769644447408 274.94103546905416 87.82838860267469
  endloop
endfacet
facet normal 1.2533184366879236e-15 -1.0219293358441748e-15 1.0
  outer loop
    vertex 216.47770253554714 263.40340278409997 92.84937836663119
    vertex 226.2631421066699 274.94103546905416 92.85076261468619
    vertex 216.47769644447408 274.94103546905416 92.84938860267474
  endloop
endfacet
facet normal 1.2533184366879236e-15 -1.0219293358441748e-15 1.0
  outer loop
    vertex 226.2631421066699 274.94103546905416 92.85076261468619
    vertex 216.47770253554714 263.40340278409997 92.84937836663119
    vertex 226.2631481977429 263.4034027840999 92.85075237864267
  endloop
endfacet
facet normal -1.2186565319683023e-05 0.9999999997160386 2.047951353442882e-05
  outer loop
    vertex 216.47769644447408 274.94103546905416 87.82838860267469
    vertex 218.26370982307424 274.94103546905416 89.83638860267467
    vertex 218.26370982307424 274.94103546905416 87.82838860267466
  endloop
endfacet
facet normal -1.2186565319683023e-05 0.9999999997160386 2.047951353442882e-05
  outer loop
    vertex 218.26370982307424 274.94103546905416 89.83638860267467
    vertex 216.47769644447408 274.94103546905416 87.82838860267469
    vertex 216.47769644447408 274.94103546905416 92.84938860267474
  endloop
endfacet
facet normal -1.2186565319683023e-05 0.9999999997160386 2.047951353442882e-05
  outer loop
    vertex 219.9916512777251 274.94103515370534 89.83612898377417
    vertex 226.26582138416177 274.9412167838403 87.83644372983859
    vertex 219.9943305552172 274.94121646849146 87.83481009892661
  endloop
endfacet
facet normal -1.2186565319683023e-05 0.9999999997160386 2.047951353442882e-05
  outer loop
    vertex 226.26582138416177 274.9412167838403 87.83644372983859
    vertex 219.9916512777251 274.94103515370534 89.83612898377417
    vertex 226.2631421066699 274.94103546905416 92.85076261468619
  endloop
endfacet
facet normal -1.2186565319683023e-05 0.9999999997160386 2.047951353442882e-05
  outer loop
    vertex 226.2631421066699 274.94103546905416 92.85076261468619
    vertex 219.9916512777251 274.94103515370534 89.83612898377417
    vertex 218.26370982307424 274.94103546905416 89.83638860267467
  endloop
endfacet
facet normal -1.2186565319683023e-05 0.9999999997160386 2.047951353442882e-05
  outer loop
    vertex 226.2631421066699 274.94103546905416 92.85076261468619
    vertex 218.26370982307424 274.94103546905416 89.83638860267467
    vertex 216.47769644447408 274.94103546905416 92.84938860267474
  endloop
endfacet
facet normal -2.8325079212206715e-15 1.0143211222306177e-15 -1.0
  outer loop
    vertex 218.26370982307424 274.94103546905416 87.82838860267466
    vertex 216.47770253554714 263.40340278409997 87.82837836663114
    vertex 216.47769644447408 274.94103546905416 87.82838860267469
  endloop
endfacet
facet normal -2.8325079212206715e-15 1.0143211222306177e-15 -1.0
  outer loop
    vertex 216.47770253554714 263.40340278409997 87.82837836663114
    vertex 218.26370982307424 274.94103546905416 87.82838860267466
    vertex 218.26371591414724 263.40340278409997 87.82837836663113
  endloop
endfacet
facet normal 1.218640342995082e-05 -0.9999999997160133 -2.0480842708235452e-05
  outer loop
    vertex 226.26582747523477 263.40358409888603 87.83643349379504
    vertex 219.99165736879812 263.40340246875104 89.83411874773064
    vertex 219.99433664629026 263.40358378353716 87.83279986288309
  endloop
endfacet
facet normal 1.218640342995082e-05 -0.9999999997160133 -2.0480842708235452e-05
  outer loop
    vertex 219.99165736879812 263.40340246875104 89.83411874773064
    vertex 226.26582747523477 263.40358409888603 87.83643349379504
    vertex 226.2631481977429 263.4034027840999 92.85075237864267
  endloop
endfacet
facet normal 1.218640342995082e-05 -0.9999999997160133 -2.0480842708235452e-05
  outer loop
    vertex 219.99165736879812 263.40340246875104 89.83411874773064
    vertex 226.2631481977429 263.4034027840999 92.85075237864267
    vertex 218.26371591414724 263.4034027840999 89.83637836663112
  endloop
endfacet
facet normal 1.218640342995082e-05 -0.9999999997160133 -2.0480842708235452e-05
  outer loop
    vertex 218.26371591414724 263.4034027840999 89.83637836663112
    vertex 226.2631481977429 263.4034027840999 92.85075237864267
    vertex 216.47770253554714 263.40340278409997 92.84937836663119
  endloop
endfacet
facet normal 1.218640342995082e-05 -0.9999999997160133 -2.0480842708235452e-05
  outer loop
    vertex 218.26371591414724 263.4034027840999 89.83637836663112
    vertex 216.47770253554714 263.40340278409997 87.82837836663114
    vertex 218.26371591414724 263.40340278409997 87.82837836663113
  endloop
endfacet
facet normal 1.218640342995082e-05 -0.9999999997160133 -2.0480842708235452e-05
  outer loop
    vertex 216.47770253554714 263.40340278409997 87.82837836663114
    vertex 218.26371591414724 263.4034027840999 89.83637836663112
    vertex 216.47770253554714 263.40340278409997 92.84937836663119
  endloop
endfacet
facet normal 0.000599999889536349 9.059763245774378e-05 -0.9999998158960839
  outer loop
    vertex 226.26582138416177 274.9412167838403 87.83644372983859
    vertex 219.99433664629026 263.40358378353716 87.83279986288309
    vertex 219.9943305552172 274.94121646849146 87.83481009892661
  endloop
endfacet
facet normal 0.000599999889536349 9.059763245774378e-05 -0.9999998158960839
  outer loop
    vertex 219.99433664629026 263.40358378353716 87.83279986288309
    vertex 226.26582138416177 274.9412167838403 87.83644372983859
    vertex 226.26582747523477 263.40358409888603 87.83643349379504
  endloop
endfacet
facet normal 0.9999998572482622 -5.471356110157027e-19 0.000534325233590321
  outer loop
    vertex 226.26582747523477 263.40358409888603 87.83643349379504
    vertex 226.2631421066699 274.94103546905416 92.85076261468619
    vertex 226.2631481977429 263.4034027840999 92.85075237864267
  endloop
endfacet
facet normal 0.9999998572482622 -5.471356110157027e-19 0.000534325233590321
  outer loop
    vertex 226.2631421066699 274.94103546905416 92.85076261468619
    vertex 226.26582747523477 263.40358409888603 87.83643349379504
    vertex 226.26582138416177 274.9412167838403 87.83644372983859
  endloop
endfacet
facet normal 1.0 -1.3483227901513544e-94 -4.4971008843918656e-64
  outer loop
    vertex 218.26371591414724 263.40340278409997 87.82837836663113
    vertex 218.26370982307424 274.94103546905416 89.83638860267467
    vertex 218.26371591414724 263.4034027840999 89.83637836663112
  endloop
endfacet
facet normal 1.0 -1.3483227901513544e-94 -4.4971008843918656e-64
  outer loop
    vertex 218.26370982307424 274.94103546905416 89.83638860267467
    vertex 218.26371591414724 263.40340278409997 87.82837836663113
    vertex 218.26370982307424 274.94103546905416 87.82838860267466
  endloop
endfacet
facet normal -0.9999991038675066 2.425760557163552e-07 -0.0013387546919232688
  outer loop
    vertex 219.9916512777251 274.94103515370534 89.83612898377417
    vertex 219.99433664629026 263.40358378353716 87.83279986288309
    vertex 219.99165736879812 263.40340246875104 89.83411874773064
  endloop
endfacet
facet normal -0.9999991038675066 2.425760557163552e-07 -0.0013387546919232688
  outer loop
    vertex 219.99433664629026 263.40358378353716 87.83279986288309
    vertex 219.9916512777251 274.94103515370534 89.83612898377417
    vertex 219.9943305552172 274.94121646849146 87.83481009892661
  endloop
endfacet
facet normal -0.0005476605748476451 7.561208274942028e-05 -0.9999998471753422
  outer loop
    vertex 219.9916512777251 274.94103515370534 89.83612898377417
    vertex 218.26371591414724 263.4034027840999 89.83637836663112
    vertex 218.26370982307424 274.94103546905416 89.83638860267467
  endloop
endfacet
facet normal -0.0005476605748476451 7.561208274942028e-05 -0.9999998471753422
  outer loop
    vertex 218.26371591414724 263.4034027840999 89.83637836663112
    vertex 219.9916512777251 274.94103515370534 89.83612898377417
    vertex 219.99165736879812 263.40340246875104 89.83411874773064
  endloop
endfacet
endsolid pedro
